<svg xmlns="http://www.w3.org/2000/svg" viewBox="0 0 900 720" fill="none">
  <defs>
    <linearGradient id="right-line" x1="900" y1="720" x2="80" y2="48" gradientUnits="userSpaceOnUse">
      <stop stop-color="#c5a266" stop-opacity="0.7" />
      <stop offset="0.62" stop-color="#b28b4e" stop-opacity="0.34" />
      <stop offset="1" stop-color="#8d6b37" stop-opacity="0" />
    </linearGradient>
    <filter id="right-glow" x="-30%" y="-20%" width="150%" height="150%">
      <feGaussianBlur stdDeviation="5" />
    </filter>
  </defs>
  <g stroke="url(#right-line)" stroke-linecap="round">
    <path d="M1012 665C772 686 710 438 512 401C301 362 260 154-46 96" stroke-width="8" opacity="0.18" filter="url(#right-glow)" />
    <path d="M1012 665C772 686 710 438 512 401C301 362 260 154-46 96" stroke-width="1.4" />
    <path d="M1004 702C755 706 673 491 483 453C277 412 196 224-44 165" opacity="0.7" />
    <path d="M988 731C731 723 636 542 449 506C259 469 148 303-28 246" opacity="0.46" />
    <path d="M956 752C695 738 594 594 408 558C236 525 108 388-2 342" opacity="0.25" />
  </g>
</svg>
